# xmcd
# 
# Track frame offsets:
#     150
#     10495
#     32332
#     46905
#     62992
#     75735
#     89092
#     102147
#     117305
#     131575
#     140470
# 
# Disc length: 2023
# 
# Revision: 1
# Processed by: cddbd v1.5.2PL0 Copyright (c) Steve Scherf et al.
# Submitted via: BonkEnc v1.0.8
# 
DISCID=9107e50b
DTITLE=The Free Design - Stars/Time/Bubbles/Love
DYEAR=1970
DGENRE=Sunshine Pop
TTITLE0=Bubbles
TTITLE1=Tomorrow Is the First Day of the Rest of My Life
TTITLE2=Kije's Ouija
TTITLE3=Butterflies Are Free
TTITLE4=Stay Off Your Frown
TTITLE5=Starlight
TTITLE6=Time and Love
TTITLE7=I'm a Yogi
TTITLE8=Raindrops Keep Falling on My Head
TTITLE9=Howdjadoo (Fly Me Down)
TTITLE10=That's All, People
EXTD=
EXTT0=
EXTT1=
EXTT2=
EXTT3=
EXTT4=
EXTT5=
EXTT6=
EXTT7=
EXTT8=
EXTT9=
EXTT10=
PLAYORDER=
